<svg width="48" height="48" viewBox="0 0 48 48" fill="none" xmlns="http://www.w3.org/2000/svg">
<rect width="48" height="48" rx="4" fill="#E31E24"/>
<path d="M17.8595 28.0499C17.8592 28.0497 17.8589 28.0494 17.8586 28.0491L18.4956 28.2917C18.2611 28.2916 18.0348 28.2056 17.8595 28.0499ZM19.8572 25.8041L19.8607 25.8002L19.8572 25.8041Z" fill="white" stroke="white" stroke-width="21.3333"/>
<path d="M19 35C20.1046 35 21 34.1046 21 33C21 31.8954 20.1046 31 19 31C17.8954 31 17 31.8954 17 33C17 34.1046 17.8954 35 19 35Z" fill="white"/>
<path d="M29 35C30.1046 35 31 34.1046 31 33C31 31.8954 30.1046 31 29 31C27.8954 31 27 31.8954 27 33C27 34.1046 27.8954 35 29 35Z" fill="white"/>
</svg>
